<?xml version="1.0"?>
<svg version="1.1" xmlns="http://www.w3.org/2000/svg" xmlns:xlink="http://www.w3.org/1999/xlink" width="1360" height="340">
    <desc iVinci="yes" version="4.5" gridStep="20" showGrid="no" snapToGrid="no" codePlatform="0"/>
    <g id="Layer1" opacity="1">
        <g id="Shape1">
            <desc shapeID="1" type="0" basicInfo-basicType="0" basicInfo-roundedRectRadius="12" basicInfo-polygonSides="6" basicInfo-starPoints="5" bounding="rect(-54.1,-185.5,108.2,371)" text="" font-familyName="" font-pixelSize="20" font-bold="0" font-underline="0" font-alignment="1" strokeStyle="0" markerStart="0" markerEnd="0" shadowEnabled="0" shadowOffsetX="0" shadowOffsetY="2" shadowBlur="4" shadowOpacity="160" blurEnabled="0" blurRadius="4" transform="matrix(0.742975,0,0,0.742975,102.045,140.213)" pers-center="0,0" pers-size="0,0" pers-start="0,0" pers-end="0,0" locked="0" mesh="" flag=""/>
            <path id="shapePath1" d="M109.549,2.54005 C109.698,3.13445 110.218,3.13445 110.664,3.28304 C121.214,5.58626 128.569,11.8273 133.324,21.3373 C139.12,33.0764 141.869,45.5583 142.24,58.5604 C137.039,72.454 132.879,86.6449 129.535,101.059 C126.34,104.996 122.477,108.34 118.836,111.832 C111.629,118.741 108.212,127.137 108.88,137.167 C109.029,139.768 109.401,142.368 109.549,144.894 C111.109,168.669 112.67,192.519 114.23,216.294 C114.007,218.374 113.933,220.455 113.561,222.535 C110.515,241.109 106.429,259.535 102.714,278.035 C100.039,271.051 98.4788,263.696 96.5471,256.415 C94.0952,247.053 91.1233,237.766 89.3402,228.182 C90.0089,226.473 90.1575,224.615 90.2318,222.758 C90.8262,210.127 91.6434,197.571 92.1635,184.941 C92.7579,170.007 94.2438,155.073 93.7981,140.065 C93.5752,131.446 91.7177,123.348 85.1053,117.107 C80.8703,113.095 76.8582,108.934 73.2176,104.402 C72.3261,100.093 71.5831,95.7092 70.3943,91.3999 C67.6453,81.2955 64.7477,71.2653 61.8501,61.2351 C62.5931,52.9881 63.4847,44.7411 65.7879,36.7169 C69.6514,22.8233 76.6353,11.3072 90.529,5.21477 C93.0551,4.10031 95.7298,3.35733 98.3302,2.39146 C102.119,2.54005 105.834,2.54005 109.549,2.54005 Z" style="stroke:none;fill-rule:nonzero;fill:#128879;fill-opacity:1;"/>
        </g>
        <g id="Shape2">
            <desc shapeID="2" type="0" basicInfo-basicType="0" basicInfo-roundedRectRadius="12" basicInfo-polygonSides="6" basicInfo-starPoints="5" bounding="rect(-56.9,-210.1,113.8,420.2)" text="" font-familyName="" font-pixelSize="20" font-bold="0" font-underline="0" font-alignment="1" strokeStyle="0" markerStart="0" markerEnd="0" shadowEnabled="0" shadowOffsetX="0" shadowOffsetY="2" shadowBlur="4" shadowOpacity="160" blurEnabled="0" blurRadius="4" transform="matrix(0.742975,0,0,0.742975,60.4384,178.031)" pers-center="0,0" pers-size="0,0" pers-start="0,0" pers-end="0,0" locked="0" mesh="" flag=""/>
            <path id="shapePath2" d="M89.3402,228.33 C91.1233,237.915 94.0952,247.128 96.5471,256.563 C98.4788,263.77 99.9647,271.126 102.714,278.184 C99.9647,290.815 97.2157,303.371 94.541,316.001 C93.278,322.019 90.9004,327.815 91.6434,334.13 C88.1514,330.267 87.3342,325.289 86.4426,320.459 C76.7096,266.965 67.1995,213.471 57.1694,160.051 C56.0549,154.256 54.8661,148.535 54.4946,142.591 C54.1975,138.207 51.5227,134.938 47.8822,132.858 C38.5207,127.36 33.4684,119.187 31.0909,108.711 C25.9644,85.7533 21.6551,62.7211 18.9804,39.3173 C18.9061,38.4258 19.3519,37.3113 18.1631,36.7169 C18.1631,33.745 18.1631,30.7731 18.1631,27.8012 C20.1692,28.0984 20.0206,29.8815 20.3921,31.1446 C22.3981,38.7972 24.4041,46.4499 26.3359,54.1025 C29.8279,67.7733 33.2455,81.3697 36.7375,95.0405 C37.109,96.5264 37.4062,98.5325 39.0408,98.3096 C41.1211,97.9381 40.3781,95.8578 40.1552,94.2975 C40.1552,94.1489 40.0809,94.0746 40.0809,93.926 C36.2174,72.3797 32.2797,50.9077 28.4162,29.3615 C28.1933,28.3213 27.3017,27.0582 29.0849,26.0924 C29.7536,28.1727 30.3479,30.0301 30.868,31.8876 C36.2917,52.0222 41.7155,72.2311 47.0649,92.3658 C47.5107,94.0003 48.1794,96.0064 49.8139,95.7092 C51.2998,95.412 51.0027,93.2573 50.7055,91.7714 C46.3962,70.0765 42.0127,48.4559 37.6291,26.761 C37.4805,25.8695 37.1833,24.9036 38.1492,24.0863 C39.4122,24.9779 39.4122,26.241 39.7094,27.3554 C45.5789,48.0101 51.4484,68.7392 57.2436,89.3939 C57.7637,91.177 58.2095,92.9602 60.1413,93.7031 C61.1814,92.0686 61.1071,90.5083 60.6613,88.6509 C56.0549,67.9962 51.4484,47.2672 46.842,26.5381 C46.5448,25.0522 46.1733,23.6405 46.6191,21.9317 C48.2536,23.0462 48.4022,24.4578 48.848,25.6466 C53.2316,37.5342 57.6151,49.4961 61.9987,61.3837 C64.822,71.4139 67.7939,81.5183 70.5429,91.5485 C71.7317,95.7835 72.4003,100.241 73.3662,104.551 C73.6634,113.169 71.4345,121.119 66.828,128.4 C63.7075,133.304 63.6332,138.356 66.3822,143.557 C67.2738,145.191 68.0168,146.9 68.3883,148.683 C71.1373,163.097 75.5208,177.139 79.31,191.256 C82.4305,203.663 85.3281,216.145 89.3402,228.33 Z" style="stroke:none;fill-rule:nonzero;fill:#c05b48;fill-opacity:1;"/>
        </g>
        <g id="Shape3">
            <desc shapeID="3" type="0" basicInfo-basicType="0" basicInfo-roundedRectRadius="12" basicInfo-polygonSides="6" basicInfo-starPoints="5" bounding="rect(-51.307,-201.138,102.614,402.275)" text="" font-familyName="" font-pixelSize="20" font-bold="0" font-underline="0" font-alignment="1" strokeStyle="0" markerStart="0" markerEnd="0" shadowEnabled="0" shadowOffsetX="0" shadowOffsetY="2" shadowBlur="4" shadowOpacity="160" blurEnabled="0" blurRadius="4" transform="matrix(0.742975,0,0,0.742975,129.697,188.168)" pers-center="0,0" pers-size="0,0" pers-start="0,0" pers-end="0,0" locked="0" mesh="" flag=""/>
            <path id="shapePath3" d="M91.7177,334.056 C90.9747,327.74 93.3523,321.945 94.6153,315.927 C97.29,303.296 100.039,290.666 102.788,278.11 C106.503,259.61 110.589,241.184 113.635,222.609 C114.007,220.529 114.081,218.449 114.304,216.368 C115.419,210.35 116.905,204.481 116.905,198.24 C116.83,191.256 118.168,184.198 118.613,177.214 C119.431,165.549 119.951,153.81 121.957,142.219 C124.334,128.474 126.935,114.804 129.609,101.133 C132.953,86.7192 137.039,72.454 142.314,58.6347 C143.875,55.7371 145.361,52.7652 146.995,49.8676 C149.447,45.484 152.716,41.7691 157.545,39.7631 C160.294,38.6487 163.043,38.0543 165.644,39.986 C168.393,42.0663 167.947,45.0382 167.427,47.8615 C165.569,57.8174 163.341,67.699 161.557,77.6549 C157.694,99.5726 154.945,121.639 150.487,143.408 C146.772,161.685 144.172,180.26 139.194,198.165 C132.284,223.129 130.798,248.762 126.712,274.098 C124.26,289.477 122.403,304.931 120.322,320.311 C120.174,321.202 120.099,322.019 120.099,322.911 C119.505,333.387 114.378,338.216 103.903,337.548 C99.6676,337.176 94.9868,337.771 91.7177,334.056 Z" style="stroke:none;fill-rule:nonzero;fill:#d7a856;fill-opacity:1;"/>
        </g>
        <g id="Shape4">
            <desc shapeID="4" type="0" basicInfo-basicType="0" basicInfo-roundedRectRadius="12" basicInfo-polygonSides="6" basicInfo-starPoints="5" bounding="rect(-79.6559,-95.0612,159.312,190.122)" text="" font-familyName="" font-pixelSize="20" font-bold="0" font-underline="0" font-alignment="1" strokeStyle="0" markerStart="0" markerEnd="0" shadowEnabled="0" shadowOffsetX="0" shadowOffsetY="2" shadowBlur="4" shadowOpacity="160" blurEnabled="0" blurRadius="4" transform="matrix(1,0,0,1,694.448,187.283)" pers-center="0,0" pers-size="0,0" pers-start="0,0" pers-end="0,0" locked="0" mesh="" flag=""/>
            <path id="shapePath4" d="M700.239,282.345 C656.039,281.845 624.539,254.745 616.938,210.645 C612.438,184.845 614.638,159.845 627.138,136.345 C651.039,91.2446 700.138,84.9447 732.938,98.6446 C754.239,107.545 766.138,124.545 771.938,146.245 C772.539,148.345 772.339,149.445 769.839,150.045 C760.739,152.245 751.739,154.545 742.839,157.045 C740.438,157.745 740.138,156.845 739.739,154.845 C735.739,138.345 725.438,127.745 708.739,124.745 C690.138,121.445 674.339,127.045 663.039,142.645 C652.138,157.645 649.539,174.945 650.438,192.945 C651.039,205.245 653.839,217.045 660.239,227.645 C674.438,251.545 706.739,258.245 727.138,241.445 C734.739,235.245 739.339,226.945 742.539,217.945 C743.638,214.845 744.539,214.045 747.739,215.645 C755.638,219.545 763.638,223.145 771.739,226.745 C774.039,227.745 774.638,228.845 773.638,231.245 C758.638,266.345 735.039,282.245 700.239,282.345 Z" style="stroke:none;fill-rule:nonzero;fill:#128879;fill-opacity:1;"/>
        </g>
        <g id="Shape5">
            <desc shapeID="5" type="0" basicInfo-basicType="0" basicInfo-roundedRectRadius="12" basicInfo-polygonSides="6" basicInfo-starPoints="5" bounding="rect(-90.9439,-64.3125,181.888,128.625)" text="" font-familyName="" font-pixelSize="20" font-bold="0" font-underline="0" font-alignment="1" strokeStyle="0" markerStart="0" markerEnd="0" shadowEnabled="0" shadowOffsetX="0" shadowOffsetY="2" shadowBlur="4" shadowOpacity="160" blurEnabled="0" blurRadius="4" transform="matrix(1,0,0,1,1124.89,213.538)" pers-center="0,0" pers-size="0,0" pers-start="0,0" pers-end="0,0" locked="0" mesh="" flag=""/>
            <path id="shapePath5" d="M1215.84,149.445 C1209.74,170.945 1203.74,191.945 1197.74,212.845 C1191.94,233.145 1186.04,253.445 1180.34,273.745 C1179.44,276.845 1178.24,277.945 1174.94,277.845 C1167.64,277.545 1160.24,277.545 1152.94,277.845 C1149.64,277.945 1148.44,276.745 1147.64,273.645 C1140.44,247.645 1133.14,221.745 1125.84,195.845 C1125.54,194.745 1125.14,193.645 1124.34,191.545 C1119.64,208.245 1115.24,223.845 1110.84,239.545 C1107.64,251.045 1104.24,262.545 1101.24,274.145 C1100.54,276.945 1099.44,277.845 1096.54,277.745 C1088.84,277.545 1081.24,277.445 1073.54,277.745 C1070.54,277.845 1069.54,276.645 1068.84,274.045 C1057.44,233.745 1045.94,193.445 1034.34,153.245 C1033.34,149.945 1034.24,149.245 1037.44,149.245 C1045.24,149.445 1053.14,149.445 1060.94,149.245 C1064.24,149.145 1065.44,150.345 1066.14,153.545 C1072.54,180.245 1079.14,206.845 1085.74,233.445 C1085.84,234.045 1086.04,234.645 1086.34,235.845 C1088.74,231.245 1089.44,226.645 1090.64,222.245 C1097.04,199.345 1103.34,176.445 1109.44,153.445 C1110.24,150.245 1111.54,149.145 1114.84,149.245 C1121.34,149.445 1127.84,149.545 1134.34,149.245 C1137.74,149.045 1138.94,150.445 1139.74,153.445 C1146.74,179.245 1153.84,205.045 1160.84,230.945 C1161.24,232.445 1161.74,233.945 1162.64,236.845 C1165.64,224.845 1168.24,214.245 1170.84,203.645 C1174.94,187.045 1179.04,170.345 1182.94,153.745 C1183.74,150.445 1184.94,149.145 1188.54,149.245 C1197.54,149.645 1206.44,149.445 1215.84,149.445 Z" style="stroke:none;fill-rule:nonzero;fill:#128879;fill-opacity:1;"/>
        </g>
        <g id="Shape6">
            <desc shapeID="6" type="0" basicInfo-basicType="0" basicInfo-roundedRectRadius="12" basicInfo-polygonSides="6" basicInfo-starPoints="5" bounding="rect(-57.2528,-90.4639,114.506,180.928)" text="" font-familyName="" font-pixelSize="20" font-bold="0" font-underline="0" font-alignment="1" strokeStyle="0" markerStart="0" markerEnd="0" shadowEnabled="0" shadowOffsetX="0" shadowOffsetY="2" shadowBlur="4" shadowOpacity="160" blurEnabled="0" blurRadius="4" transform="matrix(1,0,0,1,839.486,187.502)" pers-center="0,0" pers-size="0,0" pers-start="0,0" pers-end="0,0" locked="0" mesh="" flag=""/>
            <path id="shapePath6" d="M812.938,162.045 C829.339,145.045 848.539,143.445 868.638,149.145 C885.138,153.745 893.438,166.145 895.839,182.745 C896.638,188.345 896.638,194.045 896.638,199.745 C896.638,224.245 896.539,248.745 896.739,273.245 C896.739,276.945 895.839,278.145 892.039,277.945 C884.739,277.645 877.339,277.645 870.039,277.945 C866.438,278.045 865.739,276.845 865.739,273.445 C865.839,250.945 865.839,228.445 865.839,205.945 C865.839,204.245 865.839,202.645 865.839,200.945 C865.638,187.545 861.438,180.345 852.039,177.545 C839.638,173.845 826.339,178.145 819.638,188.145 C814.638,195.645 813.039,204.045 813.039,212.845 C812.938,233.045 812.938,253.145 813.138,273.345 C813.138,277.245 812.039,278.045 808.438,277.945 C801.438,277.645 794.438,277.645 787.438,277.945 C783.339,278.145 782.138,276.945 782.239,272.745 C782.438,223.545 782.339,174.445 782.339,125.245 C782.339,117.045 782.438,108.945 782.339,100.745 C782.339,97.9447 783.239,96.9447 786.039,97.0446 C793.739,97.2446 801.339,97.2446 809.039,97.0446 C812.339,96.9447 813.239,98.0446 813.239,101.245 C813.138,120.045 813.138,138.945 813.138,157.745 C812.938,158.745 812.938,159.945 812.938,162.045 Z" style="stroke:none;fill-rule:nonzero;fill:#138979;fill-opacity:1;"/>
        </g>
        <g id="Shape7">
            <desc shapeID="7" type="0" basicInfo-basicType="0" basicInfo-roundedRectRadius="12" basicInfo-polygonSides="6" basicInfo-starPoints="5" bounding="rect(-63.4882,-67.2956,126.976,134.591)" text="" font-familyName="" font-pixelSize="20" font-bold="0" font-underline="0" font-alignment="1" strokeStyle="0" markerStart="0" markerEnd="0" shadowEnabled="0" shadowOffsetX="0" shadowOffsetY="2" shadowBlur="4" shadowOpacity="160" blurEnabled="0" blurRadius="4" transform="matrix(1,0,0,1,971.887,213.524)" pers-center="0,0" pers-size="0,0" pers-start="0,0" pers-end="0,0" locked="0" mesh="" flag=""/>
            <path id="shapePath7" d="M987.339,220.845 C973.339,220.845 959.339,221.045 945.339,220.745 C940.839,220.645 940.438,222.145 941.239,225.945 C944.539,241.745 957.938,252.445 974.239,252.245 C987.938,252.045 999.739,247.645 1008.34,236.545 C1009.94,234.445 1011.14,234.345 1013.24,235.645 C1019.74,239.645 1026.34,243.545 1033.04,247.245 C1035.94,248.845 1035.94,249.945 1034.14,252.445 C1022.74,267.845 1007.34,276.545 988.638,279.545 C974.138,281.845 959.638,281.345 945.938,275.445 C922.638,265.445 911.438,246.545 908.938,222.145 C907.039,203.745 909.938,186.145 921.138,170.845 C934.438,152.645 953.339,145.845 975.138,146.245 C1015.14,146.845 1029.84,172.845 1033.64,203.145 C1034.24,207.645 1034.24,212.145 1034.74,216.545 C1035.14,219.845 1034.04,220.745 1030.74,220.745 C1016.34,220.745 1001.84,220.845 987.339,220.845 M971.539,196.945 C980.239,196.945 988.839,196.945 997.539,196.945 C1003.24,196.945 1003.34,196.845 1001.44,191.445 C997.039,178.945 985.739,171.345 972.039,171.745 C958.138,172.145 945.339,181.545 941.638,193.845 C940.839,196.445 941.438,196.945 943.938,196.945 C953.138,196.845 962.339,196.945 971.539,196.945 Z" style="stroke:none;fill-rule:nonzero;fill:#128879;fill-opacity:1;"/>
        </g>
        <g id="Shape8">
            <desc shapeID="8" type="0" basicInfo-basicType="0" basicInfo-roundedRectRadius="12" basicInfo-polygonSides="6" basicInfo-starPoints="5" bounding="rect(-65.1242,-67.33,130.249,134.66)" text="" font-familyName="" font-pixelSize="20" font-bold="0" font-underline="0" font-alignment="1" strokeStyle="0" markerStart="0" markerEnd="0" shadowEnabled="0" shadowOffsetX="0" shadowOffsetY="2" shadowBlur="4" shadowOpacity="160" blurEnabled="0" blurRadius="4" transform="matrix(1,0,0,1,377.03,208.776)" pers-center="0,0" pers-size="0,0" pers-start="0,0" pers-end="0,0" locked="0" mesh="" flag=""/>
            <path id="shapePath8" d="M442.139,210.329 C442.339,219.229 440.639,229.429 436.539,239.029 C424.339,267.629 397.439,278.329 369.739,275.729 C326.439,271.729 308.839,236.129 312.339,200.129 C313.039,193.129 314.539,186.329 317.139,179.829 C327.339,154.129 352.839,139.629 381.639,141.629 C421.939,144.329 442.439,174.229 442.139,210.329 M409.939,205.029 C409.939,200.329 408.139,192.329 403.739,185.029 C391.939,165.429 363.039,164.629 351.139,184.129 C341.239,200.329 341.239,217.529 351.139,233.729 C362.839,252.729 391.139,252.429 403.239,233.529 C407.939,226.029 409.939,217.629 409.939,205.029 Z" style="stroke:none;fill-rule:nonzero;fill:#128879;fill-opacity:1;"/>
        </g>
        <g id="Shape9">
            <desc shapeID="9" type="0" basicInfo-basicType="0" basicInfo-roundedRectRadius="12" basicInfo-polygonSides="6" basicInfo-starPoints="5" bounding="rect(-75.6624,-90.5065,151.325,181.013)" text="" font-familyName="" font-pixelSize="20" font-bold="0" font-underline="0" font-alignment="1" strokeStyle="0" markerStart="0" markerEnd="0" shadowEnabled="0" shadowOffsetX="0" shadowOffsetY="2" shadowBlur="4" shadowOpacity="160" blurEnabled="0" blurRadius="4" transform="matrix(1,0,0,1,258.815,182.729)" pers-center="0,0" pers-size="0,0" pers-start="0,0" pers-end="0,0" locked="0" mesh="" flag=""/>
            <path id="shapePath9" d="M183.239,92.329 C194.739,92.329 206.339,92.329 217.939,92.329 C220.739,92.329 220.939,94.629 221.839,96.229 C233.239,117.829 244.539,139.529 255.839,161.229 C256.639,162.829 257.539,164.329 258.439,166.029 C260.439,164.929 260.739,163.029 261.639,161.429 C273.039,139.629 284.539,117.829 295.839,95.929 C297.239,93.129 298.839,92.129 301.939,92.229 C312.739,92.429 323.539,92.329 334.439,92.329 C334.739,94.729 333.239,96.229 332.339,97.929 C314.239,131.429 296.139,164.929 277.939,198.429 C276.439,201.129 275.739,203.829 275.739,206.929 C275.839,227.429 275.739,247.929 275.839,268.429 C275.839,272.129 275.039,273.329 271.139,273.229 C262.839,272.929 254.439,272.929 246.139,273.229 C242.539,273.329 241.739,272.229 241.739,268.729 C241.939,248.029 241.739,227.429 241.839,206.729 C241.839,203.829 241.239,201.229 239.839,198.729 C221.339,164.629 202.939,130.529 184.439,96.429 C183.939,95.329 182.839,94.329 183.239,92.329 Z" style="stroke:none;fill-rule:nonzero;fill:#128879;fill-opacity:1;"/>
        </g>
        <g id="Shape10">
            <desc shapeID="10" type="0" basicInfo-basicType="0" basicInfo-roundedRectRadius="12" basicInfo-polygonSides="6" basicInfo-starPoints="5" bounding="rect(-57.3023,-65.8469,114.605,131.694)" text="" font-familyName="" font-pixelSize="20" font-bold="0" font-underline="0" font-alignment="1" strokeStyle="0" markerStart="0" markerEnd="0" shadowEnabled="0" shadowOffsetX="0" shadowOffsetY="2" shadowBlur="4" shadowOpacity="160" blurEnabled="0" blurRadius="4" transform="matrix(1,0,0,1,511.236,210.352)" pers-center="0,0" pers-size="0,0" pers-start="0,0" pers-end="0,0" locked="0" mesh="" flag=""/>
            <path id="shapePath10" d="M537.739,260.229 C520.139,279.829 493.239,278.329 477.939,271.829 C463.639,265.829 456.839,254.129 454.839,239.329 C453.439,228.429 454.239,217.329 454.139,206.429 C454.039,187.629 454.239,168.829 453.939,149.929 C453.839,145.329 455.339,144.329 459.539,144.529 C466.539,144.829 473.539,144.829 480.539,144.529 C484.139,144.429 484.939,145.629 484.939,149.029 C484.839,171.729 484.839,194.329 484.839,217.029 C484.839,217.829 484.839,218.729 484.839,219.529 C484.839,237.129 490.539,244.829 504.439,246.129 C521.139,247.629 533.739,238.729 536.739,223.029 C537.439,219.129 537.739,215.129 537.739,211.129 C537.639,190.629 537.839,170.129 537.639,149.629 C537.639,145.929 538.339,144.329 542.439,144.529 C549.439,144.929 556.439,144.829 563.439,144.529 C567.339,144.329 568.539,145.429 568.539,149.529 C568.339,173.229 568.439,196.829 568.439,220.529 C568.439,236.529 568.339,252.529 568.539,268.529 C568.539,272.129 567.839,273.529 563.939,273.329 C556.839,273.029 549.639,272.929 542.439,273.329 C538.239,273.529 537.239,271.929 537.639,268.229 C537.939,265.829 537.739,263.529 537.739,260.229 Z" style="stroke:none;fill-rule:nonzero;fill:#138979;fill-opacity:1;"/>
        </g>
        <g id="Shape11">
            <desc shapeID="11" type="0" basicInfo-basicType="0" basicInfo-roundedRectRadius="12" basicInfo-polygonSides="6" basicInfo-starPoints="5" bounding="rect(-58.9351,-67.2659,117.87,134.532)" text="" font-familyName="" font-pixelSize="20" font-bold="0" font-underline="0" font-alignment="1" strokeStyle="0" markerStart="0" markerEnd="0" shadowEnabled="0" shadowOffsetX="0" shadowOffsetY="2" shadowBlur="4" shadowOpacity="160" blurEnabled="0" blurRadius="4" transform="matrix(1,0,0,1,1271.34,213.678)" pers-center="0,0" pers-size="0,0" pers-start="0,0" pers-end="0,0" locked="0" mesh="" flag=""/>
            <path id="shapePath11" d="M1305.24,189.645 C1302.54,186.345 1300.54,182.545 1297.24,179.945 C1285.04,170.645 1271.64,169.545 1257.54,174.245 C1253.14,175.745 1249.64,178.745 1249.74,184.145 C1249.74,189.445 1253.64,191.645 1257.74,193.245 C1267.24,196.945 1277.54,197.645 1287.44,199.745 C1293.64,201.045 1299.84,202.345 1305.74,204.645 C1331.74,214.445 1338.44,243.845 1319.24,264.145 C1309.54,274.345 1297.14,278.745 1283.64,280.245 C1264.54,282.345 1246.14,279.845 1228.84,270.945 C1223.34,268.145 1218.44,264.445 1213.94,260.145 C1212.24,258.445 1211.54,257.445 1214.04,255.645 C1220.24,251.145 1226.24,246.345 1232.14,241.545 C1234.14,239.845 1235.04,240.245 1236.84,242.045 C1249.94,255.445 1265.84,257.845 1283.34,253.445 C1287.24,252.445 1290.64,250.145 1293.34,247.045 C1297.84,241.745 1296.94,236.245 1290.94,232.945 C1284.24,229.245 1276.74,228.345 1269.44,226.945 C1259.34,224.945 1249.14,223.245 1239.54,219.245 C1226.94,213.945 1218.54,205.345 1217.64,190.945 C1216.74,176.345 1221.74,164.545 1234.14,156.245 C1253.24,143.545 1297.94,139.945 1322.44,165.145 C1325.74,168.545 1326.44,170.645 1322.34,173.945 C1316.24,178.645 1310.94,184.245 1305.24,189.645 Z" style="stroke:none;fill-rule:nonzero;fill:#128879;fill-opacity:1;"/>
        </g>
    </g>
</svg>
