<?xml version="1.0" encoding="utf-8"?>
<!-- Generator: Adobe Illustrator 18.0.0, SVG Export Plug-In . SVG Version: 6.00 Build 0)  -->
<!DOCTYPE svg PUBLIC "-//W3C//DTD SVG 1.1//EN" "http://www.w3.org/Graphics/SVG/1.1/DTD/svg11.dtd">
<svg version="1.1" id="Layer_1" xmlns="http://www.w3.org/2000/svg" xmlns:xlink="http://www.w3.org/1999/xlink" x="0px" y="0px"
	 viewBox="0 0 612 792" enable-background="new 0 0 612 792" xml:space="preserve">
<g>
	<g>
		<path fill="#BF5941" d="M308.6,118c154.4-0.7,283,127.1,279.4,286.1c-3.3,151.2-129,276.7-286.7,272.9
			C150.3,673.5,25.2,547.8,29,390.4C32.6,239.7,156.5,117.4,308.6,118z M256,240.6c0.1,2,0.1,4,0.3,5.9c2.9,27,8,53.6,14.2,80.1
			c2.8,11.8,8.5,20.8,19.2,26.6c4.7,2.6,8.1,6.7,7.9,12c-0.4,9.7,3.3,18.6,5.1,27.8c8.6,46.1,17.6,92.2,26.6,138.2
			c2.2,11.2,3.1,22.8,7,33.7c2.7,7.7,12.2,10.9,19.3,6.7c7.5-4.4,12-16.6,9.1-24.9c-3.1-9-7.2-17.5-9.8-26.7
			c-11.6-41-23.3-81.9-34.9-122.9c-2.9-10.2-4.8-20.8-8.7-30.6c-3-7.4-3.2-13.5,1.2-20.2c6.1-9.4,7.4-19.7,4.8-30.6
			c-6.6-27.4-16.8-53.6-27-79.8c-0.3-0.9-0.4-2-1.9-2.1c-0.9,1.8-0.1,3.5,0.3,5.2c5.1,21.7,10.2,43.4,15.3,65.1
			c0.5,2.2,2.1,5.7-0.3,6.3c-2.9,0.7-3-3.3-3.6-5.4c-6.4-21.2-12.6-42.4-19-63.6c-0.5-1.6-0.4-3.6-2.5-4.3c-0.3,0.5-0.6,0.8-0.5,1.1
			c4.7,22.8,9.5,45.6,14.2,68.4c0.4,2.2,2.1,5.6-0.4,6.2c-3.3,0.9-3.1-3.2-3.7-5.3c-5.9-20.6-11.6-41.3-17.5-61.9
			c-0.6-2.2-0.7-4.9-2.8-6.5c-1.1,0.8-1,1.6-0.9,2.4c4.2,21.2,8.5,42.4,12.7,63.6c0.6,2.8,0.9,5.6,1.3,8.4c0.1,1,0.1,2.2-1,2.5
			c-1.5,0.5-2-0.8-2.5-1.9c-0.3-0.7-0.4-1.6-0.6-2.4c-5.7-21.2-11.3-42.4-17-63.6C259.2,245.3,258.9,242.5,256,240.6z"/>
		<path fill="#FDFBFB" d="M256,240.6c2.9,2,3.2,4.8,3.9,7.4c5.7,21.2,11.4,42.4,17,63.6c0.2,0.8,0.3,1.7,0.6,2.4
			c0.5,1,1,2.3,2.5,1.9c1.2-0.4,1.2-1.6,1-2.5c-0.4-2.8-0.7-5.6-1.3-8.4c-4.2-21.2-8.5-42.4-12.7-63.6c-0.2-0.8-0.3-1.6,0.9-2.4
			c2.1,1.6,2.2,4.3,2.8,6.5c5.9,20.6,11.6,41.3,17.5,61.9c0.6,2.1,0.5,6.2,3.7,5.3c2.5-0.7,0.9-4.1,0.4-6.2
			c-4.7-22.8-9.5-45.6-14.2-68.4c-0.1-0.2,0.3-0.6,0.5-1.1c2,0.8,2,2.8,2.5,4.3c6.3,21.2,12.6,42.4,19,63.6c0.7,2.2,0.7,6.1,3.6,5.4
			c2.4-0.6,0.8-4.1,0.3-6.3c-5.1-21.7-10.2-43.4-15.3-65.1c-0.4-1.7-1.2-3.4-0.3-5.2c1.4,0.1,1.5,1.2,1.9,2.1
			c10.2,26.2,20.5,52.4,27,79.8c2.6,11,1.3,21.2-4.8,30.6c-4.3,6.7-4.2,12.7-1.2,20.2c3.9,9.8,5.8,20.4,8.7,30.6
			c11.6,41,23.3,81.9,34.9,122.9c2.6,9.1,6.7,17.7,9.8,26.7c2.9,8.3-1.6,20.5-9.1,24.9c-7.1,4.2-16.5,1-19.3-6.7
			c-3.9-10.9-4.8-22.4-7-33.7c-9.1-46-18-92.1-26.6-138.2c-1.7-9.2-5.4-18.1-5.1-27.8c0.2-5.3-3.2-9.4-7.9-12
			c-10.7-5.8-16.4-14.8-19.2-26.6c-6.2-26.4-11.3-53.1-14.2-80.1C256.1,244.5,256.1,242.5,256,240.6z"/>
	</g>
</g>
</svg>
